<?xml version="1.0" encoding="iso-8859-1"?>
<!-- Generator: Adobe Illustrator 16.0.0, SVG Export Plug-In . SVG Version: 6.00 Build 0)  -->
<!DOCTYPE svg PUBLIC "-//W3C//DTD SVG 1.1//EN" "http://www.w3.org/Graphics/SVG/1.1/DTD/svg11.dtd">
<svg version="1.1" id="Layer_1" xmlns="http://www.w3.org/2000/svg" xmlns:xlink="http://www.w3.org/1999/xlink" x="0px" y="0px"
	 width="70px" height="70px" viewBox="0 0 70 70" style="enable-background:new 0 0 70 70;" xml:space="preserve">
<g>
	<path style="fill:#F5AC1B;" d="M34.497,3.823c0.278-0.564,0.732-0.564,1.006,0l9.422,19.089c0.278,0.563,1.015,1.097,1.636,1.188
		l21.066,3.061c0.619,0.09,0.761,0.522,0.311,0.961L52.695,42.98c-0.449,0.439-0.73,1.305-0.625,1.924l3.6,20.984
		c0.106,0.619-0.262,0.883-0.818,0.594l-18.844-9.908c-0.554-0.295-1.463-0.295-2.021,0l-18.839,9.902
		c-0.554,0.295-0.922,0.023-0.817-0.594l3.6-20.982c0.106-0.619-0.174-1.486-0.624-1.922L2.063,28.122
		c-0.45-0.439-0.309-0.871,0.312-0.961L23.442,24.1c0.621-0.09,1.356-0.623,1.633-1.188L34.497,3.823z"/>
</g>
<g>
	<path style="fill:#F5AC1B;" d="M144.043-32.299c0.289-0.584,0.76-0.584,1.045,0l9.76,19.777c0.289,0.583,1.053,1.136,1.695,1.23
		l21.825,3.171c0.642,0.093,0.787,0.541,0.322,0.995L162.898,8.269c-0.467,0.455-0.758,1.352-0.646,1.992l3.729,21.74
		c0.109,0.641-0.271,0.915-0.848,0.614L145.61,22.351c-0.575-0.305-1.517-0.305-2.093,0L124,32.609
		c-0.576,0.307-0.957,0.025-0.847-0.614l3.729-21.738c0.109-0.64-0.182-1.538-0.646-1.989L110.443-7.125
		c-0.466-0.454-0.32-0.902,0.322-0.995l21.826-3.172c0.643-0.093,1.404-0.646,1.691-1.23L144.043-32.299z"/>
</g>
</svg>
