<?xml version="1.0" encoding="iso-8859-1"?>
<!-- Generator: Adobe Illustrator 16.0.0, SVG Export Plug-In . SVG Version: 6.00 Build 0)  -->
<!DOCTYPE svg PUBLIC "-//W3C//DTD SVG 1.1//EN" "http://www.w3.org/Graphics/SVG/1.1/DTD/svg11.dtd">
<svg version="1.1" id="Layer_1" xmlns="http://www.w3.org/2000/svg" xmlns:xlink="http://www.w3.org/1999/xlink" x="0px" y="0px"
	 width="150px" height="150px" viewBox="0 0 150 150" style="enable-background:new 0 0 150 150;" xml:space="preserve">
<g>
	<path style="fill-rule:evenodd;clip-rule:evenodd;fill:#343434;" d="M29.816,7.933c0.558-1.842,2.102-2.299,4.148-2.296
		c27.265,0.042,54.529,0.046,81.793-0.005c2.207-0.004,3.976,0.327,4.703,2.74c4.051-2.029,8.121-3.273,12.602-2.436
		c6.939,1.297,12.235,6.913,13.217,13.884c0.96,6.813-0.941,12.916-4.412,18.64c-4.933,8.137-11.506,14.881-18.456,21.267
		c-6.521,5.99-13.172,11.836-19.729,17.785c-1.919,1.738-3.646,3.647-3.953,6.416c-0.254,2.283,1.198,4.261,3.446,4.625
		c2.392,0.387,4.543-0.932,5.056-3.094c0.482-2.04,1.865-3.161,3.533-2.865c1.728,0.304,2.613,1.696,2.445,3.848
		c-0.271,3.49-3.489,6.85-7.459,7.788c-5.012,1.183-8.739-0.385-12.199-5.262c-0.854,0.921-1.628,1.876-2.524,2.697
		c-2.312,2.119-4.697,4.155-7,6.284c-0.447,0.412-0.92,1.08-0.931,1.639c-0.079,3.95-0.044,7.906-0.044,12.048
		c2.953,0.492,5.838,0.974,8.721,1.455c2.224,0.37,4.448,0.737,6.671,1.118c1.838,0.313,2.684,1.475,2.695,3.279
		c0.018,2.872,0.005,5.745,0.005,8.797c3.812,0,7.438-0.003,11.064,0.002c3.03,0.005,4.009,1.004,4.015,4.078
		c0.004,3.393,0.006,6.785-0.001,10.178c-0.009,2.708-1.066,3.819-3.703,3.819c-25.694,0.007-51.389,0.007-77.083,0
		c-2.549-0.001-3.622-1.113-3.63-3.699c-0.012-3.579-0.016-7.161,0.001-10.741c0.012-2.57,1.083-3.621,3.69-3.631
		c3.702-0.013,7.402-0.006,11.382-0.006c0-2.752-0.002-5.426,0-8.099c0.005-2.778,0.622-3.58,3.319-4.047
		c4.381-0.761,8.766-1.507,13.165-2.149c1.234-0.18,1.708-0.575,1.675-1.874c-0.084-3.391,0.001-6.785-0.056-10.176
		c-0.011-0.623-0.188-1.441-0.605-1.825c-3.277-3.003-6.63-5.923-10.006-8.909c-1.608,2.604-3.977,4.555-7.341,5.247
		c-5.275,1.086-11.202-2.565-12.127-7.611c-0.261-1.424-0.218-2.985,1.208-3.648c0.93-0.435,2.321-0.407,3.295-0.036
		c0.663,0.253,1.16,1.406,1.387,2.248c0.581,2.156,2.906,3.617,5.254,3.115c2.249-0.479,3.892-2.592,3.153-4.725
		c-0.673-1.942-1.686-3.987-3.125-5.402c-4.34-4.268-8.95-8.257-13.472-12.338c-8.723-7.873-17.448-15.745-24.095-25.57
		c-3.203-4.736-5.51-9.811-5.969-15.617C2.656,13.705,10.616,5.015,20.752,5.759C23.741,5.979,26.66,7.147,29.816,7.933z
		 M35.987,11.792c0.101,1.983,0.128,3.806,0.297,5.615c1.091,11.688,3.148,23.193,6.281,34.518
		c4.744,17.151,13.6,31.546,27.832,42.476c0.813,0.623,1.495,1.956,1.521,2.98c0.149,5.523,0.074,11.054,0.069,16.581
		c-0.001,1.822-0.875,2.96-2.693,3.28c-2.219,0.393-4.446,0.747-6.669,1.119c-2.883,0.479-5.768,0.959-8.616,1.436
		c0,2.254,0,4.299,0,6.359c14.078,0,28.044,0,42.119,0c0-1.691-0.086-3.26,0.027-4.816c0.095-1.313-0.459-1.692-1.672-1.872
		c-4.518-0.68-9.022-1.461-13.529-2.227c-2.081-0.354-2.904-1.32-2.912-3.443c-0.019-5.402-0.103-10.809,0.071-16.204
		c0.036-1.124,0.788-2.584,1.683-3.268c12.252-9.342,20.617-21.5,25.723-35.878c3.821-10.76,6.043-21.951,7.491-33.274
		c0.562-4.4,0.862-8.835,1.295-13.382C88.101,11.792,62.125,11.792,35.987,11.792z M110.919,62.947
		c2.201-1.991,4.697-4.173,7.112-6.44c6.916-6.496,13.733-13.092,18.728-21.271c2.778-4.545,4.512-9.409,3.455-14.834
		c-0.828-4.261-3.124-7.429-7.574-8.38c-4.508-0.965-8.412,0.362-11.545,3.779c-0.373,0.405-0.633,0.938-0.858,1.449
		c-1.462,3.298-0.1,5.882,3.438,6.563c1.768,0.341,2.771,1.611,2.625,3.322c-0.136,1.58-1.316,2.704-3.074,2.62
		c-1.524-0.072-3.037-0.426-4.146-0.595C116.34,40.499,113.616,51.775,110.919,62.947z M31.018,29.03
		c-1.009,0.209-2.276,0.601-3.567,0.709c-2.158,0.179-3.608-1.022-3.69-2.847c-0.077-1.736,1.148-2.987,3.25-3.114
		c1.612-0.096,2.543-0.941,3.052-2.355c0.75-2.073,0.327-4.021-1.046-5.646c-2.837-3.354-6.683-4.479-10.847-3.951
		c-4.009,0.509-6.688,3.073-7.922,6.906c-1.529,4.754-0.528,9.313,1.575,13.664c2.541,5.252,6.114,9.813,10.16,13.945
		c5.606,5.726,11.425,11.241,17.253,16.946C36.442,51.642,33.737,40.366,31.018,29.03z M38.909,138.22c24.158,0,48.171,0,72.143,0
		c0-2.036,0-3.942,0-5.819c-24.119,0-48.087,0-72.143,0C38.909,134.357,38.909,136.22,38.909,138.22z"/>
</g>
<rect x="214.333" y="13.5" style="fill:#343434;" width="27" height="25"/>
</svg>
