<?xml version="1.0" encoding="iso-8859-1"?>
<!-- Generator: Adobe Illustrator 16.0.0, SVG Export Plug-In . SVG Version: 6.00 Build 0)  -->
<!DOCTYPE svg PUBLIC "-//W3C//DTD SVG 1.1//EN" "http://www.w3.org/Graphics/SVG/1.1/DTD/svg11.dtd">
<svg version="1.1" id="Layer_1" xmlns="http://www.w3.org/2000/svg" xmlns:xlink="http://www.w3.org/1999/xlink" x="0px" y="0px"
	 width="600px" height="600px" viewBox="0 0 600 600" style="enable-background:new 0 0 600 600;" xml:space="preserve">
<g>
	<path style="fill:#201E1F;" d="M8.124,301.717c29.226-12.726,59.854-12.809,89.07-3.852c29.739,9.137,57.794,23.696,86.782,35.368
		c26.746,10.797,52.953,25.138,80.817,30.399c46.752,8.822,61.425-5.033,66.279-51.979c0.229-2.299,0.395-4.615,0.663-7.83
		c12.197,0,23.796,0,36.18,0c1.5,16.734-0.621,34.214,13.544,46.617c16.36-15.325,21.05-39.109,11.297-55.894
		c-8.699-14.941-26.686-21.31-47.994-13.021c-15.17,5.918-28.518,16.458-42.661,24.971c-15.356,9.234-29.925,20.326-46.264,27.241
		c-15.925,6.752-31.97-1.573-39.741-16.452c-6.932-13.22-2.925-27.477,11.131-38.939c19.586-15.982,43.624-20.477,67.31-25.747
		c34.983-7.761,66.41-22.697,94.262-45.466c29.832-24.344,41.886-54.465,32.027-92.606c21.289,15.268,27.129,49.293,9.277,71.592
		c-11.908,14.879-27.771,27.326-43.758,38.038c-32.947,22.05-71.209,30.831-109.189,40.149c-11.726,2.883-23.624,7.761-33.6,14.486
		c-12.99,8.724-15.004,20.072-8.885,30.914c6.395,11.265,18.214,16.162,32.203,8.904c15.787-8.201,30.433-19.177,44.257-30.52
		c16.483-13.559,32.928-26.233,55.334-26.761c37.566-0.922,58.399,27.61,45.208,63.018c-4.204,11.265-11.949,21.226-19.776,34.677
		c14.766,0,28.618,0.633,42.401-0.196c14.134-0.829,28.176-3.105,42.257-4.752c9.517,67.563-14.953,117.1-66.094,129.482
		c48.015-44.378,60.854-73.215,50.5-115.151c-10.499,1.025-21.206,2.287-31.945,3.063c-9.971,0.706-21.08,3.842-29.746,0.653
		c-18.64-6.845-32.244,1.035-47.344,9.297c-25.077,13.742-52.838,18.298-81.096,20.15c-23.702,1.575-47.409,3.252-71.105,4.888
		c-0.901,1.253-1.791,2.548-2.691,3.802c11.374,13.491,21.703,28.11,34.449,40.175c13.005,12.322,28.392,22.127,45.368,35.04
		c-26.124-8.016-45.617-20.959-62.484-37.867c-8.066-8.097-15.987-16.577-22.247-26.073c-6.487-9.888-12.922-12.362-24.659-8.955
		c-29.998,8.707-54.491,23.887-70.344,54.63c5.069-32.658,20.57-45.923,78.255-68.559C135.987,336.988,76.402,312.438,8.124,301.717
		z M349.317,331.801c-5.073,28.135-24.291,41.792-50.613,43.367c-19.618,1.179-40.581,0.641-59.058-5.158
		c-26.989-8.491-52.212-22.438-78.316-33.797c-13-5.635-26.285-10.604-39.446-15.885c-0.59,1.107-1.165,2.215-1.76,3.335
		c28.46,16.421,49.583,39.929,67.279,66.953c2.004,3.063,7.6,5.446,11.483,5.343c29.065-0.591,58.188-0.85,87.134-3.241
		c29.956-2.453,58.277-11.069,81.812-28.525C361.266,352.676,355.448,342.529,349.317,331.801z"/>
	<path style="fill:#201E1F;" d="M508.239,309.311c0,3.717,0.312,4.752-0.041,5.415c-5.136,9.423-10.872,19.593-1.326,28.724
		c9.466,9.051,21.537,6.711,32.204,1.719c24.56-11.483,37.338-32.473,40.568-58.234c2.94-23.473-22.937-40.113-46.833-31.312
		c-6.824,2.496-13.109,6.493-21.301,10.666c16.009-22.594,37.185-28.609,59.312-18.327c20.015,9.319,28.187,29.064,21.869,52.808
		c-7.767,29.232-33.113,52.25-62.272,55.625c-13.212,1.543-26.55,0.239-33.073-13.77
		C491.456,329.907,498.216,320.008,508.239,309.311z"/>
	<path style="fill:#201E1F;" d="M428.727,259.747c23.359,32.554,6.161,72.751-34.511,80.507
		C423.892,320.238,430.3,293.047,428.727,259.747z"/>
</g>
</svg>
