<?xml version="1.0" encoding="iso-8859-1"?>
<!-- Generator: Adobe Illustrator 16.0.0, SVG Export Plug-In . SVG Version: 6.00 Build 0)  -->
<!DOCTYPE svg PUBLIC "-//W3C//DTD SVG 1.1//EN" "http://www.w3.org/Graphics/SVG/1.1/DTD/svg11.dtd">
<svg version="1.1" id="Layer_1" xmlns="http://www.w3.org/2000/svg" xmlns:xlink="http://www.w3.org/1999/xlink" x="0px" y="0px"
	 width="100px" height="72.067px" viewBox="0 0 100 72.067" style="enable-background:new 0 0 100 72.067;" xml:space="preserve">
<g>
	<g>
		<path style="fill:#FFFFFF;" d="M19.335,24.795c2.757-1.2,5.645-1.208,8.4-0.363c2.805,0.862,5.45,2.235,8.184,3.335
			c2.523,1.019,4.994,2.371,7.623,2.867c4.408,0.832,5.793-0.475,6.25-4.902c0.022-0.217,0.037-0.435,0.063-0.738
			c1.151,0,2.245,0,3.413,0c0.142,1.578-0.06,3.227,1.276,4.396c1.543-1.445,1.986-3.688,1.066-5.271
			c-0.82-1.409-2.517-2.01-4.527-1.228c-1.43,0.558-2.689,1.552-4.023,2.355c-1.447,0.871-2.822,1.917-4.363,2.569
			c-1.502,0.637-3.015-0.148-3.748-1.552c-0.654-1.247-0.275-2.591,1.051-3.672c1.847-1.507,4.113-1.931,6.348-2.428
			c3.3-0.732,6.264-2.141,8.891-4.288c2.813-2.296,3.949-5.137,3.021-8.734c2.007,1.44,2.558,4.649,0.875,6.752
			c-1.124,1.403-2.62,2.577-4.128,3.587c-3.107,2.08-6.715,2.908-10.297,3.787c-1.106,0.272-2.229,0.732-3.17,1.366
			c-1.225,0.823-1.414,1.893-0.838,2.916c0.604,1.063,1.719,1.524,3.037,0.84c1.489-0.773,2.871-1.809,4.174-2.878
			c1.555-1.279,3.106-2.474,5.219-2.524c3.544-0.087,5.509,2.604,4.265,5.943c-0.397,1.063-1.128,2.002-1.866,3.271
			c1.394,0,2.7,0.06,4-0.019c1.332-0.078,2.657-0.293,3.985-0.448c0.897,6.372-1.411,11.044-6.233,12.212
			c4.527-4.186,5.739-6.905,4.762-10.86c-0.99,0.097-2,0.216-3.012,0.289c-0.94,0.066-1.988,0.362-2.806,0.062
			c-1.758-0.646-3.041,0.098-4.465,0.877c-2.366,1.296-4.983,1.726-7.649,1.9c-2.234,0.148-4.471,0.307-6.705,0.461
			c-0.086,0.118-0.17,0.24-0.254,0.358c1.072,1.272,2.047,2.651,3.248,3.789c1.227,1.162,2.678,2.087,4.279,3.305
			c-2.464-0.756-4.303-1.977-5.893-3.571c-0.762-0.764-1.508-1.563-2.099-2.459c-0.612-0.933-1.219-1.166-2.325-0.845
			c-2.83,0.821-5.14,2.253-6.635,5.152c0.479-3.08,1.939-4.331,7.381-6.466C31.394,28.122,25.774,25.807,19.335,24.795z
			 M51.514,27.633c-0.479,2.653-2.291,3.941-4.774,4.09c-1.85,0.111-3.826,0.061-5.57-0.486c-2.545-0.801-4.924-2.116-7.385-3.188
			c-1.227-0.531-2.479-1-3.721-1.498c-0.056,0.104-0.109,0.209-0.166,0.314c2.684,1.549,4.676,3.766,6.346,6.314
			c0.188,0.289,0.717,0.514,1.082,0.504c2.742-0.055,5.488-0.08,8.219-0.305c2.824-0.232,5.496-1.045,7.716-2.691
			C52.64,29.602,52.092,28.645,51.514,27.633z"/>
		<path style="fill:#FFFFFF;" d="M66.501,33.493c0,0.351,0.029,0.448-0.004,0.511c-0.484,0.889-1.025,1.848-0.125,2.709
			c0.894,0.854,2.031,0.633,3.037,0.162c2.316-1.083,3.522-3.063,3.826-5.492c0.277-2.214-2.162-3.783-4.416-2.953
			c-0.645,0.235-1.236,0.612-2.01,1.006c1.51-2.131,3.508-2.698,5.594-1.729c1.889,0.879,2.659,2.741,2.063,4.98
			c-0.733,2.757-3.123,4.928-5.874,5.246c-1.246,0.146-2.503,0.022-3.118-1.299C64.919,35.436,65.557,34.502,66.501,33.493z"/>
		<path style="fill:#FFFFFF;" d="M59.003,32.852c2.203,3.07,0.58,6.861-3.256,7.593C58.546,38.557,59.151,35.992,59.003,32.852z"/>
	</g>
	<g>
		<path style="fill:#FFFFFF;" d="M65.95,51.229c0-1.563,0.012-2.951-0.004-4.338c-0.013-1.111-0.378-1.858-1.705-1.527
			c-0.099,0.025-0.23-0.088-0.347-0.146c-0.033-0.018-0.045-0.074-0.183-0.306c1.548-0.626,3.063-1.239,4.8-1.943
			c0,2.211,0,4.092,0,5.975c0,3.824,0,7.65,0.002,11.474c0,2.127,0.041,2.169,2.205,2.668c-1.482,0.593-2.968,1.187-4.601,1.841
			c-0.117-0.768-0.184-1.188-0.254-1.666c-0.188,0.06-0.34,0.061-0.414,0.131c-2.617,2.524-7.488,1.629-8.717-3.26
			c-0.719-2.861-0.029-5.535,1.959-7.787C60.568,50.223,62.946,49.828,65.95,51.229z M65.956,57.862c-0.028,0-0.063,0-0.092,0
			c0-1.21,0.107-2.432-0.027-3.625c-0.17-1.512-1.186-2.561-2.52-2.803c-1.396-0.25-2.313,0.567-3.031,1.588
			c-1.396,1.967-1.313,6.277,0.146,8.188c0.375,0.491,0.826,1.143,1.349,1.266c0.979,0.229,2.075,0.324,3.041,0.104
			c1.063-0.243,1.227-1.27,1.147-2.295C65.909,59.484,65.956,58.671,65.956,57.862z"/>
		<path style="fill:#FFFFFF;" d="M50.821,51.238c0-1.478,0.006-2.867,0-4.259c-0.009-1.16-0.354-1.961-1.761-1.609
			c-0.069,0.018-0.178-0.033-0.242-0.085c-0.063-0.054-0.096-0.147-0.237-0.379c1.524-0.614,3.021-1.217,4.803-1.933
			c0,0.768,0,1.232,0,1.698c0,5.178,0,10.352,0,15.528c0,2.282,0,2.282,2.197,2.899c-1.463,0.578-2.929,1.16-4.541,1.799
			c-0.082-0.76-0.135-1.229-0.195-1.791c-0.232,0.121-0.395,0.183-0.527,0.277c-3.65,2.555-7.758,1.063-8.725-3.252
			c-0.6-2.675-0.092-5.188,1.617-7.389C45.139,50.266,47.646,49.76,50.821,51.238z M50.923,58.086
			c0.066-0.011,0.138-0.02,0.205-0.031c-0.229-1.584-0.223-3.254-0.745-4.73c-0.791-2.238-3.201-2.641-4.71-0.852
			c-0.657,0.783-1.165,1.854-1.325,2.859c-0.408,2.546-0.276,5.049,1.926,6.909c0.984,0.832,2.07,0.994,3.259,0.471
			c1.147-0.507,1.543-1.384,1.405-2.604C50.861,59.442,50.923,58.762,50.923,58.086z"/>
		<path style="fill:#FFFFFF;" d="M93.926,64.162c-2.16,0-4.322,0-6.484,0c2.478-0.392,2.017-2.276,2.017-3.874
			c-0.002-1.979,0.014-3.963-0.133-5.936c-0.144-1.946-1.437-2.646-3.213-1.887c-1.636,0.694-2.16,1.491-2.16,3.279
			c0,1.711-0.002,3.422,0,5.133c0.002,2.322,0.061,2.405,2.092,3.246c-2.142,0-4.279,0-6.42,0c2.192-0.521,1.854-2.271,1.865-3.833
			c0.008-1.71-0.013-3.422-0.033-5.131c-0.029-2.422-0.037-2.422-2.488-3.051c1.791-0.726,3.271-1.321,4.971-2.011
			c0,1.027,0,1.813,0,2.822c0.85-0.697,1.451-1.281,2.143-1.744c2.64-1.771,5.281-0.772,5.709,2.354
			c0.328,2.389,0.172,4.845,0.201,7.271C92.003,62.272,91.855,63.807,93.926,64.162z"/>
		<path style="fill:#FFFFFF;" d="M18.347,61.792c-0.024,1.02-1.492,2.541-2.726,2.733c-1.031,0.159-1.61-0.357-2.066-1.938
			c-0.667,0.463-1.292,0.93-1.949,1.346c-1.752,1.107-3.757,0.834-4.823-0.635c-1.155-1.588-0.91-3.861,0.833-5.005
			c1.854-1.219,3.912-2.12,6.096-3.274c-0.084-0.588-0.099-1.453-0.351-2.239c-0.386-1.22-1.395-1.604-2.578-1.413
			c-1.079,0.175-1.586,0.876-1.602,1.995c-0.006,0.513-0.071,1.182-0.389,1.481c-0.297,0.281-1.121,0.395-1.432,0.176
			c-0.386-0.27-0.713-0.979-0.659-1.453c0.172-1.559,1.272-2.576,2.684-2.844c1.454-0.271,3.027-0.254,4.493-0.017
			c1.479,0.239,2.166,1.293,2.203,2.82c0.055,2.245-0.002,4.497,0.066,6.743c0.021,0.723,0.295,1.436,0.454,2.149
			C17.195,62.207,17.787,61.994,18.347,61.792z M13.669,56.546c-0.13-0.104-0.261-0.209-0.393-0.313
			c-1.335,0.854-2.78,1.581-3.971,2.604c-0.948,0.815-0.829,2.041-0.146,3.089c0.568,0.869,1.464,1.121,2.367,0.717
			c1.007-0.453,2.283-0.721,2.16-2.334C13.593,59.061,13.669,57.803,13.669,56.546z"/>
		<path style="fill:#FFFFFF;" d="M40.13,61.868c-0.026,0.997-1.381,2.417-2.631,2.646c-1.03,0.188-1.619-0.313-2.186-1.908
			c-0.637,0.447-1.236,0.906-1.873,1.313c-1.725,1.104-3.84,0.838-4.85-0.581c-1.117-1.573-0.889-3.935,0.781-5.043
			c1.59-1.056,3.363-1.893,5.151-2.573c1.361-0.521,0.99-1.369,0.813-2.269c-0.291-1.504-0.985-2.126-2.313-2.122
			c-1.088,0.002-1.805,0.5-2.022,1.585c-0.074,0.392,0.108,0.89-0.068,1.193c-0.256,0.437-0.771,1.063-1.115,1.024
			c-0.467-0.051-1.139-0.576-1.258-1.022c-0.297-1.101,0.303-1.989,1.168-2.677c1.662-1.313,5.115-1.479,6.91-0.344
			c1.035,0.65,1.305,1.678,1.316,2.791c0.028,2.159-0.019,4.321,0.037,6.48c0.018,0.68,0.256,1.355,0.396,2.033
			C38.982,62.219,39.573,62.039,40.13,61.868z M35.514,56.264c-1.256,0.586-2.371,0.951-3.293,1.592
			c-0.688,0.479-1.31,1.234-1.64,2.007c-0.492,1.146,0.369,2.582,1.508,2.868c1.113,0.281,3.337-0.816,3.396-1.787
			C35.581,59.484,35.514,58.014,35.514,56.264z"/>
		<path style="fill:#FFFFFF;" d="M19.344,44.896c1.626-0.629,3.146-1.217,4.854-1.877c0,3.04,0,5.781,0,8.522
			c0,2.929,0,5.854,0,8.78c0,2.686,0,2.686,2.374,3.848c-2.475,0-4.682,0-6.889,0c2.379-0.48,1.953-2.318,1.955-3.917
			c0.012-3.829,0.012-7.655-0.002-11.483c-0.004-0.896,0.147-1.901-0.207-2.654C21.172,45.569,20.2,45.364,19.344,44.896z"/>
		<path style="fill:#FFFFFF;" d="M76.321,50.075c0,3.826-0.007,7.275,0,10.729c0.004,1.435-0.322,3.07,2.271,2.98
			c-0.129,0.124-0.256,0.247-0.383,0.371c-2.137,0-4.271,0-6.406,0c-0.117-0.112-0.23-0.223-0.346-0.332
			c2.49,0.031,2.242-1.544,2.229-2.996c-0.015-1.977,0-3.953-0.002-5.93c-0.006-2.254-0.008-2.254-2.188-2.905
			C73.005,51.393,74.512,50.794,76.321,50.075z"/>
		<path style="fill:#FFFFFF;" d="M75.532,46.324c-1.386-0.086-1.974-0.554-1.979-1.53c-0.01-0.888,0.48-1.47,1.373-1.529
			c0.953-0.063,1.668,0.519,1.586,1.414C76.452,45.315,75.803,45.896,75.532,46.324z"/>
	</g>
</g>
</svg>
