<?xml version="1.0" encoding="iso-8859-1"?>
<!-- Generator: Adobe Illustrator 16.0.0, SVG Export Plug-In . SVG Version: 6.00 Build 0)  -->
<!DOCTYPE svg PUBLIC "-//W3C//DTD SVG 1.1//EN" "http://www.w3.org/Graphics/SVG/1.1/DTD/svg11.dtd">
<svg version="1.1" id="Layer_1" xmlns="http://www.w3.org/2000/svg" xmlns:xlink="http://www.w3.org/1999/xlink" x="0px" y="0px"
	 width="150px" height="40px" viewBox="0 0 150 40" style="enable-background:new 0 0 150 40;" xml:space="preserve">
<g>
	<path style="fill:#201E1F;" d="M1.384,19.887c2.756-1.2,5.645-1.208,8.4-0.363c2.805,0.862,5.451,2.235,8.185,3.335
		c2.522,1.019,4.994,2.371,7.622,2.867c4.409,0.832,5.793-0.474,6.251-4.902c0.022-0.217,0.037-0.435,0.062-0.738
		c1.151,0,2.245,0,3.413,0c0.141,1.578-0.059,3.227,1.277,4.396c1.542-1.445,1.985-3.688,1.065-5.271
		c-0.82-1.409-2.516-2.01-4.526-1.228c-1.431,0.558-2.69,1.552-4.024,2.355c-1.448,0.871-2.822,1.917-4.363,2.569
		c-1.502,0.637-3.015-0.148-3.748-1.551c-0.654-1.247-0.276-2.592,1.05-3.673c1.847-1.507,4.114-1.931,6.348-2.428
		c3.3-0.732,6.263-2.141,8.89-4.288c2.814-2.296,3.95-5.137,3.021-8.734c2.007,1.44,2.558,4.649,0.875,6.752
		c-1.124,1.403-2.62,2.577-4.128,3.587c-3.107,2.08-6.715,2.908-10.297,3.787c-1.106,0.272-2.228,0.732-3.169,1.366
		c-1.225,0.823-1.415,1.893-0.838,2.915c0.603,1.063,1.718,1.525,3.037,0.84c1.489-0.773,2.87-1.808,4.174-2.878
		c1.554-1.279,3.106-2.474,5.218-2.524c3.544-0.087,5.509,2.604,4.265,5.943c-0.397,1.063-1.128,2.002-1.866,3.271
		c1.393,0,2.7,0.06,3.999-0.019c1.333-0.078,2.658-0.293,3.986-0.448c0.897,6.372-1.411,11.044-6.234,12.212
		c4.528-4.186,5.74-6.905,4.763-10.86c-0.991,0.097-2,0.216-3.013,0.289c-0.94,0.066-1.988,0.362-2.805,0.062
		c-1.758-0.646-3.041,0.097-4.465,0.877c-2.366,1.295-4.984,1.725-7.649,1.9c-2.235,0.148-4.471,0.307-6.706,0.461
		c-0.085,0.118-0.169,0.24-0.254,0.358c1.073,1.272,2.047,2.651,3.249,3.789c1.227,1.162,2.678,2.087,4.279,3.305
		c-2.464-0.756-4.302-1.977-5.893-3.571c-0.761-0.764-1.508-1.564-2.098-2.459c-0.612-0.933-1.219-1.166-2.326-0.845
		c-2.829,0.821-5.139,2.253-6.634,5.152c0.478-3.08,1.94-4.331,7.38-6.466C13.443,23.214,7.823,20.898,1.384,19.887z M33.563,22.725
		c-0.479,2.653-2.291,3.941-4.774,4.09c-1.85,0.111-3.827,0.06-5.57-0.487c-2.545-0.8-4.924-2.116-7.386-3.187
		c-1.226-0.531-2.479-1-3.72-1.498c-0.056,0.104-0.11,0.209-0.166,0.314c2.684,1.549,4.676,3.766,6.345,6.314
		c0.189,0.289,0.717,0.514,1.083,0.504c2.741-0.055,5.488-0.08,8.218-0.305c2.825-0.232,5.496-1.044,7.716-2.691
		C34.689,24.693,34.141,23.736,33.563,22.725z"/>
	<path style="fill:#201E1F;" d="M120.641,24.068c0-1.563,0.012-2.951-0.004-4.338c-0.013-1.111-0.378-1.858-1.705-1.527
		c-0.099,0.025-0.231-0.088-0.347-0.146c-0.033-0.018-0.045-0.074-0.183-0.306c1.548-0.626,3.063-1.239,4.8-1.943
		c0,2.211,0,4.092,0,5.975c0,3.824,0,7.65,0.002,11.474c0,2.127,0.041,2.169,2.205,2.668c-1.482,0.593-2.968,1.187-4.601,1.841
		c-0.117-0.768-0.183-1.188-0.254-1.666c-0.188,0.059-0.339,0.06-0.414,0.131c-2.617,2.524-7.488,1.629-8.716-3.26
		c-0.719-2.861-0.03-5.535,1.959-7.787C115.259,23.063,117.637,22.667,120.641,24.068z M120.646,30.701c-0.028,0-0.062,0-0.092,0
		c0-1.21,0.108-2.432-0.027-3.625c-0.17-1.512-1.185-2.561-2.519-2.803c-1.396-0.25-2.313,0.568-3.032,1.588
		c-1.396,1.967-1.312,6.277,0.146,8.188c0.375,0.491,0.826,1.142,1.349,1.265c0.978,0.229,2.075,0.324,3.041,0.104
		c1.062-0.243,1.227-1.27,1.147-2.295C120.6,32.323,120.646,31.511,120.646,30.701z"/>
	<path style="fill:#201E1F;" d="M105.512,24.077c0-1.478,0.006-2.867,0-4.259c-0.009-1.16-0.354-1.961-1.761-1.609
		c-0.069,0.018-0.178-0.033-0.242-0.085c-0.063-0.054-0.096-0.147-0.237-0.379c1.524-0.614,3.021-1.217,4.802-1.933
		c0,0.768,0,1.232,0,1.698c0,5.178,0,10.352,0,15.528c0,2.282,0,2.282,2.198,2.899c-1.463,0.578-2.929,1.16-4.541,1.799
		c-0.082-0.76-0.135-1.228-0.196-1.791c-0.232,0.121-0.394,0.183-0.527,0.277c-3.651,2.555-7.758,1.063-8.725-3.252
		c-0.599-2.674-0.091-5.188,1.618-7.388C99.829,23.105,102.337,22.6,105.512,24.077z M105.613,30.926
		c0.066-0.011,0.138-0.02,0.205-0.031c-0.229-1.584-0.223-3.254-0.745-4.731c-0.791-2.238-3.201-2.64-4.71-0.851
		c-0.657,0.783-1.165,1.854-1.325,2.859c-0.408,2.546-0.276,5.049,1.926,6.909c0.984,0.832,2.07,0.994,3.259,0.471
		c1.147-0.507,1.543-1.384,1.405-2.604C105.552,32.281,105.613,31.602,105.613,30.926z"/>
	<path style="fill:#201E1F;" d="M148.616,37.001c-2.16,0-4.322,0-6.484,0c2.478-0.392,2.017-2.276,2.017-3.874
		c-0.002-1.979,0.013-3.963-0.133-5.936c-0.144-1.946-1.437-2.646-3.213-1.887c-1.636,0.695-2.16,1.492-2.16,3.28
		c0,1.711-0.002,3.422,0,5.133c0.002,2.322,0.06,2.405,2.092,3.246c-2.142,0-4.28,0-6.42,0c2.192-0.521,1.854-2.271,1.865-3.833
		c0.008-1.71-0.013-3.422-0.033-5.131c-0.03-2.422-0.037-2.422-2.489-3.051c1.791-0.725,3.271-1.321,4.971-2.01
		c0,1.027,0,1.812,0,2.822c0.849-0.697,1.451-1.281,2.142-1.744c2.64-1.771,5.282-0.773,5.709,2.353
		c0.328,2.389,0.172,4.845,0.201,7.271C146.693,35.111,146.546,36.646,148.616,37.001z"/>
	<path style="fill:#201E1F;" d="M73.038,34.631c-0.025,1.02-1.492,2.541-2.726,2.733c-1.031,0.159-1.61-0.357-2.066-1.938
		c-0.667,0.463-1.292,0.93-1.949,1.346c-1.752,1.107-3.757,0.834-4.824-0.635c-1.155-1.588-0.91-3.861,0.833-5.005
		c1.854-1.219,3.913-2.12,6.096-3.274c-0.084-0.588-0.099-1.453-0.35-2.24c-0.386-1.219-1.395-1.604-2.579-1.413
		c-1.079,0.175-1.586,0.876-1.601,1.995c-0.006,0.513-0.071,1.182-0.389,1.482c-0.297,0.281-1.121,0.394-1.431,0.176
		c-0.386-0.27-0.713-0.979-0.66-1.453c0.172-1.559,1.273-2.577,2.684-2.844c1.454-0.271,3.027-0.254,4.493-0.017
		c1.479,0.239,2.166,1.293,2.203,2.82c0.055,2.245-0.002,4.497,0.067,6.743c0.021,0.723,0.295,1.436,0.454,2.15
		C71.886,35.046,72.478,34.833,73.038,34.631z M68.36,29.386c-0.13-0.104-0.261-0.209-0.392-0.313
		c-1.335,0.854-2.781,1.581-3.971,2.604c-0.948,0.815-0.829,2.041-0.146,3.089c0.569,0.869,1.464,1.121,2.368,0.717
		c1.006-0.453,2.283-0.721,2.16-2.334C68.284,31.9,68.36,30.643,68.36,29.386z"/>
	<path style="fill:#201E1F;" d="M94.82,34.707c-0.026,0.997-1.381,2.417-2.631,2.646c-1.03,0.188-1.619-0.313-2.185-1.908
		c-0.637,0.447-1.237,0.906-1.873,1.313c-1.725,1.104-3.84,0.838-4.85-0.581c-1.117-1.573-0.888-3.935,0.782-5.043
		c1.59-1.056,3.363-1.893,5.151-2.573c1.361-0.521,0.99-1.369,0.813-2.269c-0.29-1.504-0.985-2.126-2.313-2.122
		c-1.088,0.002-1.805,0.5-2.023,1.585c-0.074,0.392,0.109,0.89-0.068,1.193c-0.256,0.437-0.771,1.063-1.115,1.024
		c-0.467-0.05-1.139-0.576-1.258-1.022c-0.297-1.101,0.303-1.989,1.168-2.677c1.662-1.312,5.115-1.479,6.91-0.344
		c1.035,0.651,1.305,1.678,1.316,2.791c0.029,2.16-0.018,4.322,0.037,6.481c0.018,0.68,0.256,1.356,0.396,2.034
		C93.673,35.059,94.264,34.878,94.82,34.707z M90.204,29.104c-1.256,0.586-2.371,0.951-3.293,1.592
		c-0.688,0.478-1.31,1.234-1.64,2.006c-0.492,1.146,0.369,2.582,1.508,2.869c1.113,0.281,3.337-0.817,3.397-1.788
		C90.271,32.323,90.204,30.854,90.204,29.104z"/>
	<path style="fill:#201E1F;" d="M74.035,17.735c1.626-0.629,3.146-1.217,4.854-1.877c0,3.04,0,5.781,0,8.522c0,2.929,0,5.854,0,8.78
		c0,2.686,0,2.686,2.373,3.848c-2.474,0-4.681,0-6.888,0c2.379-0.48,1.953-2.318,1.955-3.917c0.012-3.829,0.012-7.655-0.002-11.483
		c-0.004-0.896,0.147-1.902-0.207-2.655C75.863,18.408,74.891,18.203,74.035,17.735z"/>
	<path style="fill:#201E1F;" d="M131.012,22.914c0,3.826-0.007,7.275,0,10.729c0.004,1.434-0.322,3.07,2.271,2.98
		c-0.129,0.124-0.256,0.247-0.383,0.371c-2.137,0-4.271,0-6.406,0c-0.117-0.112-0.23-0.223-0.346-0.332
		c2.49,0.031,2.242-1.544,2.23-2.996c-0.014-1.977,0-3.953-0.002-5.93c-0.006-2.254-0.008-2.254-2.188-2.905
		C127.695,24.232,129.202,23.634,131.012,22.914z"/>
	<path style="fill:#201E1F;" d="M48.551,28.585c0,0.351,0.029,0.448-0.004,0.511c-0.485,0.889-1.026,1.848-0.125,2.709
		c0.893,0.853,2.031,0.633,3.037,0.162c2.316-1.083,3.522-3.063,3.826-5.492c0.277-2.214-2.163-3.783-4.417-2.953
		c-0.644,0.235-1.236,0.612-2.009,1.006c1.51-2.131,3.507-2.699,5.594-1.729c1.888,0.879,2.659,2.741,2.063,4.98
		c-0.733,2.757-3.123,4.928-5.874,5.246c-1.246,0.146-2.503,0.023-3.118-1.299C46.968,30.527,47.606,29.594,48.551,28.585z"/>
	<path style="fill:#201E1F;" d="M41.052,27.943c2.203,3.07,0.581,6.861-3.255,7.593C40.595,33.648,41.2,31.084,41.052,27.943z"/>
	<path style="fill:#201E1F;" d="M130.223,19.163c-1.386-0.086-1.974-0.554-1.979-1.53c-0.009-0.888,0.481-1.47,1.373-1.529
		c0.954-0.063,1.668,0.519,1.586,1.414C131.143,18.155,130.493,18.736,130.223,19.163z"/>
</g>
</svg>
