<?xml version="1.0" encoding="iso-8859-1"?>
<!-- Generator: Adobe Illustrator 16.0.0, SVG Export Plug-In . SVG Version: 6.00 Build 0)  -->
<!DOCTYPE svg PUBLIC "-//W3C//DTD SVG 1.1//EN" "http://www.w3.org/Graphics/SVG/1.1/DTD/svg11.dtd">
<svg version="1.1" id="Layer_1" xmlns="http://www.w3.org/2000/svg" xmlns:xlink="http://www.w3.org/1999/xlink" x="0px" y="0px"
	 width="150px" height="150px" viewBox="0 0 150 150" style="enable-background:new 0 0 150 150;" xml:space="preserve">
<g>
	<path style="fill-rule:evenodd;clip-rule:evenodd;fill:#343434;" d="M254.178-59.739c0.558-1.842,2.102-2.299,4.148-2.296
		c27.264,0.042,54.528,0.046,81.793-0.005c2.207-0.004,3.976,0.327,4.703,2.74c4.051-2.029,8.121-3.273,12.602-2.436
		c6.939,1.297,12.235,6.913,13.217,13.884c0.96,6.813-0.941,12.916-4.412,18.64c-4.933,8.137-11.506,14.881-18.456,21.267
		c-6.521,5.99-13.172,11.836-19.729,17.785c-1.919,1.738-3.646,3.647-3.953,6.416c-0.254,2.283,1.198,4.261,3.446,4.625
		c2.392,0.387,4.543-0.932,5.056-3.094c0.482-2.04,1.865-3.161,3.533-2.865c1.728,0.304,2.613,1.696,2.445,3.848
		c-0.271,3.49-3.489,6.85-7.459,7.788c-5.012,1.183-8.739-0.385-12.199-5.262c-0.854,0.921-1.628,1.876-2.524,2.697
		c-2.312,2.119-4.697,4.155-7,6.284c-0.447,0.412-0.92,1.08-0.931,1.639c-0.079,3.95-0.044,7.906-0.044,12.048
		c2.953,0.492,5.838,0.974,8.721,1.455c2.224,0.37,4.448,0.737,6.671,1.118c1.838,0.313,2.684,1.475,2.695,3.279
		c0.018,2.872,0.005,5.745,0.005,8.797c3.812,0,7.438-0.003,11.064,0.002c3.03,0.005,4.009,1.004,4.015,4.078
		c0.004,3.393,0.006,6.785-0.001,10.178c-0.009,2.708-1.066,3.819-3.703,3.819c-25.694,0.007-51.389,0.007-77.083,0
		c-2.549-0.001-3.622-1.113-3.631-3.699c-0.012-3.579-0.016-7.161,0.002-10.741c0.012-2.57,1.084-3.621,3.689-3.631
		c3.702-0.013,7.402-0.006,11.383-0.006c0-2.752-0.002-5.426,0-8.099c0.006-2.778,0.622-3.58,3.32-4.047
		c4.381-0.761,8.766-1.507,13.164-2.149c1.234-0.18,1.709-0.575,1.676-1.874c-0.084-3.391,0.002-6.785-0.056-10.176
		c-0.011-0.623-0.188-1.441-0.605-1.825c-3.276-3.003-6.63-5.923-10.007-8.909c-1.607,2.604-3.977,4.555-7.341,5.247
		c-5.274,1.086-11.202-2.565-12.128-7.611c-0.261-1.424-0.218-2.985,1.208-3.648c0.931-0.435,2.321-0.407,3.295-0.036
		c0.663,0.253,1.16,1.406,1.387,2.248c0.581,2.156,2.906,3.617,5.254,3.115c2.249-0.479,3.892-2.592,3.153-4.725
		c-0.674-1.942-1.687-3.987-3.125-5.402c-4.34-4.268-8.95-8.257-13.472-12.338c-8.723-7.873-17.448-15.745-24.095-25.57
		c-3.203-4.736-5.51-9.811-5.969-15.617c-0.883-11.163,7.077-19.854,17.213-19.109C248.103-61.692,251.021-60.524,254.178-59.739z
		 M260.348-55.88c0.102,1.983,0.129,3.806,0.297,5.615c1.092,11.688,3.148,23.193,6.281,34.518
		c4.744,17.151,13.6,31.546,27.832,42.476c0.814,0.623,1.496,1.956,1.521,2.98c0.149,5.523,0.074,11.054,0.068,16.581
		c0,1.822-0.875,2.96-2.693,3.28c-2.219,0.393-4.445,0.747-6.669,1.119c-2.883,0.479-5.768,0.959-8.616,1.436
		c0,2.254,0,4.299,0,6.359c14.078,0,28.044,0,42.119,0c0-1.691-0.086-3.26,0.027-4.816c0.095-1.313-0.459-1.692-1.672-1.872
		c-4.518-0.68-9.022-1.461-13.529-2.227c-2.081-0.354-2.904-1.32-2.912-3.443c-0.019-5.402-0.103-10.809,0.071-16.204
		c0.036-1.124,0.788-2.584,1.683-3.268c12.252-9.342,20.617-21.5,25.723-35.878c3.821-10.76,6.043-21.951,7.491-33.274
		c0.562-4.4,0.862-8.835,1.295-13.382C312.462-55.88,286.486-55.88,260.348-55.88z M335.28-4.725
		c2.201-1.991,4.697-4.173,7.112-6.44c6.916-6.496,13.733-13.092,18.728-21.271c2.778-4.545,4.512-9.409,3.455-14.834
		c-0.828-4.261-3.124-7.429-7.574-8.38c-4.508-0.965-8.412,0.362-11.545,3.779c-0.373,0.405-0.633,0.938-0.858,1.449
		c-1.462,3.298-0.1,5.882,3.438,6.563c1.768,0.341,2.771,1.611,2.625,3.322c-0.136,1.58-1.316,2.704-3.074,2.62
		c-1.524-0.072-3.037-0.426-4.146-0.595C340.701-27.173,337.978-15.896,335.28-4.725z M255.379-38.642
		c-1.01,0.209-2.275,0.601-3.567,0.709c-2.158,0.179-3.608-1.022-3.69-2.847c-0.076-1.736,1.148-2.987,3.251-3.114
		c1.612-0.096,2.543-0.941,3.052-2.355c0.75-2.073,0.327-4.021-1.045-5.646c-2.838-3.354-6.684-4.479-10.848-3.951
		c-4.01,0.509-6.688,3.073-7.922,6.906c-1.529,4.754-0.528,9.313,1.574,13.664c2.541,5.252,6.114,9.813,10.16,13.945
		c5.607,5.726,11.426,11.241,17.254,16.946C260.803-16.03,258.098-27.306,255.379-38.642z M263.27,70.548
		c24.158,0,48.172,0,72.144,0c0-2.036,0-3.942,0-5.819c-24.119,0-48.087,0-72.144,0C263.27,66.686,263.27,68.548,263.27,70.548z"/>
</g>
<rect x="214.333" y="13.5" style="fill:#343434;" width="27" height="25"/>
<g>
	<path style="fill-rule:evenodd;clip-rule:evenodd;fill:#343434;" d="M138.879,71.881c0,11.921-0.097,23.843,0.061,35.763
		c0.045,3.443-2.433,4.465-5.071,3.074c-10.068-5.309-20.923-7.01-32.231-6.16c-8.734,0.656-17.035,2.941-24.996,6.518
		c-1.375,0.617-2.549,0.305-3.806-0.25c-10.077-4.441-20.592-6.836-31.637-6.449c-8.997,0.314-17.611,2.277-25.616,6.553
		c-2.417,1.293-4.416,0.107-4.418-2.678c-0.015-24.189-0.005-48.38-0.014-72.569c0-1.488,0.613-2.501,1.962-3.163
		c20.056-9.839,40.268-10.388,60.688-1.126c0.701,0.318,1.808,0.279,2.522-0.043c20.429-9.209,40.639-8.675,60.681,1.208
		c1.53,0.754,1.894,1.992,1.891,3.561C138.868,48.04,138.879,59.961,138.879,71.881z M133.339,104.014
		c0.022-0.4,0.075-0.898,0.075-1.396c0.005-21.412-0.01-42.826,0.039-64.238c0.003-1.282-0.491-1.81-1.561-2.281
		c-18.58-8.179-36.97-7.985-55.155,1.218c-1.197,0.605-2.242,0.608-3.438,0.001C55.178,28.121,36.838,27.962,18.291,36
		c-1.303,0.564-1.712,1.312-1.708,2.728c0.049,21.239,0.034,42.48,0.034,63.718c0,0.553,0,1.107,0,1.65
		c0.32,0.018,0.442,0.055,0.542,0.023c0.273-0.09,0.538-0.207,0.805-0.316c8.185-3.338,16.728-4.891,25.534-4.865
		c10.167,0.029,19.958,2.107,29.325,6.055c1.554,0.656,2.834,0.635,4.389-0.002c14.374-5.877,29.181-7.793,44.456-4.369
		C125.581,101.498,129.39,102.852,133.339,104.014z"/>
	<path style="fill-rule:evenodd;clip-rule:evenodd;fill:#343434;" d="M141.754,116.504c0-0.977,0-1.723,0-2.469
		c-0.001-23.615-0.001-47.231-0.001-70.846c0-2.648,0.938-4.053,2.711-4.067c1.782-0.014,2.752,1.404,2.752,4.022
		c0,25.351,0,50.704-0.001,76.055c0,0.578,0.046,1.164-0.027,1.734c-0.245,1.945-2.043,3.074-3.813,2.238
		c-7.958-3.752-16.326-6.092-25.022-7.203c-10.202-1.305-20.406-1.279-30.571,0.498c-1.068,0.188-1.614,0.58-1.826,1.813
		c-0.618,3.596-3.054,5.652-6.461,6.439c-3.127,0.721-6.313,0.678-9.443-0.215c-3.301-0.943-5.428-3.043-6.012-6.449
		c-0.173-1.012-0.614-1.434-1.479-1.533c-4.014-0.461-8.021-1.088-12.049-1.289c-12.287-0.617-24.358,0.668-36.033,4.75
		c-2.447,0.857-4.836,1.898-7.206,2.955c-2.57,1.146-4.442,0.072-4.443-2.738c-0.016-25.93-0.013-51.86-0.003-77.79
		c0-1.995,1.184-3.337,2.788-3.288c1.646,0.051,2.667,1.403,2.667,3.586c0.002,23.789,0.001,47.577,0,71.366
		c0,0.734,0,1.469,0,2.186c4.13-1.246,8.063-2.557,12.062-3.613c9.064-2.396,18.325-3.207,27.667-2.848
		c4.842,0.188,9.676,0.719,14.5,1.225c1.352,0.143,2.689,0.662,3.974,1.164c1.896,0.744,2.998,2.146,2.88,4.273
		c-0.091,1.617,0.731,2.691,2.195,2.822c2.327,0.207,4.696,0.205,7.025,0.018c1.417-0.115,2.186-1.201,2.087-2.717
		c-0.152-2.318,1.054-3.932,3.119-4.428c3.799-0.912,7.663-1.799,11.545-2.082c7.848-0.572,15.717-0.563,23.553,0.516
		c7.407,1.02,14.628,2.729,21.593,5.473C140.795,116.186,141.12,116.285,141.754,116.504z"/>
	<path style="fill-rule:evenodd;clip-rule:evenodd;fill:#343434;" d="M77.749,71.006c0,8.328,0,16.656-0.003,24.982
		c0,0.578,0.033,1.166-0.059,1.732c-0.23,1.412-1.474,2.535-2.746,2.408c-1.412-0.145-2.327-0.965-2.591-2.389
		c-0.094-0.504-0.063-1.035-0.063-1.555c-0.003-16.771-0.003-33.542-0.002-50.313c0-0.462-0.028-0.931,0.032-1.386
		c0.21-1.542,1.398-2.674,2.773-2.57c1.544,0.116,2.364,1.087,2.616,2.549c0.088,0.507,0.039,1.039,0.039,1.559
		C77.749,54.352,77.749,62.679,77.749,71.006z"/>
</g>
</svg>
