<?xml version="1.0" encoding="iso-8859-1"?>
<!-- Generator: Adobe Illustrator 16.0.0, SVG Export Plug-In . SVG Version: 6.00 Build 0)  -->
<!DOCTYPE svg PUBLIC "-//W3C//DTD SVG 1.1//EN" "http://www.w3.org/Graphics/SVG/1.1/DTD/svg11.dtd">
<svg version="1.1" id="Layer_1" xmlns="http://www.w3.org/2000/svg" xmlns:xlink="http://www.w3.org/1999/xlink" x="0px" y="0px"
	 width="150px" height="150px" viewBox="0 0 150 150" style="enable-background:new 0 0 150 150;" xml:space="preserve">
<g>
	<path style="fill-rule:evenodd;clip-rule:evenodd;fill:#343434;" d="M254.178-59.739c0.558-1.842,2.102-2.299,4.148-2.296
		c27.264,0.042,54.528,0.046,81.793-0.005c2.207-0.004,3.976,0.327,4.703,2.74c4.051-2.029,8.121-3.273,12.602-2.436
		c6.939,1.297,12.235,6.913,13.217,13.884c0.96,6.813-0.941,12.916-4.412,18.64c-4.933,8.137-11.506,14.881-18.456,21.267
		c-6.521,5.99-13.172,11.836-19.729,17.785c-1.919,1.738-3.646,3.647-3.953,6.416c-0.254,2.283,1.198,4.261,3.446,4.625
		c2.392,0.387,4.543-0.932,5.056-3.094c0.482-2.04,1.865-3.161,3.533-2.865c1.728,0.304,2.613,1.696,2.445,3.848
		c-0.271,3.49-3.489,6.85-7.459,7.788c-5.012,1.183-8.739-0.385-12.199-5.262c-0.854,0.921-1.628,1.876-2.524,2.697
		c-2.312,2.119-4.697,4.155-7,6.284c-0.447,0.412-0.92,1.08-0.931,1.639c-0.079,3.95-0.044,7.906-0.044,12.048
		c2.953,0.492,5.838,0.974,8.721,1.455c2.224,0.37,4.448,0.737,6.671,1.118c1.838,0.313,2.684,1.475,2.695,3.279
		c0.018,2.872,0.005,5.745,0.005,8.797c3.812,0,7.438-0.003,11.064,0.002c3.03,0.005,4.009,1.004,4.015,4.078
		c0.004,3.393,0.006,6.785-0.001,10.178c-0.009,2.708-1.066,3.819-3.703,3.819c-25.694,0.007-51.389,0.007-77.083,0
		c-2.549-0.001-3.622-1.113-3.631-3.699c-0.012-3.579-0.016-7.161,0.002-10.741c0.012-2.57,1.084-3.621,3.689-3.631
		c3.702-0.013,7.402-0.006,11.383-0.006c0-2.752-0.002-5.426,0-8.099c0.006-2.778,0.622-3.58,3.32-4.047
		c4.381-0.761,8.766-1.507,13.164-2.149c1.234-0.18,1.709-0.575,1.676-1.874c-0.084-3.391,0.002-6.785-0.056-10.176
		c-0.011-0.623-0.188-1.441-0.605-1.825c-3.276-3.003-6.63-5.923-10.007-8.909c-1.607,2.604-3.977,4.555-7.341,5.247
		c-5.274,1.086-11.202-2.565-12.128-7.611c-0.261-1.424-0.218-2.985,1.208-3.648c0.931-0.435,2.321-0.407,3.295-0.036
		c0.663,0.253,1.16,1.406,1.387,2.248c0.581,2.156,2.906,3.617,5.254,3.115c2.249-0.479,3.892-2.592,3.153-4.725
		c-0.674-1.942-1.687-3.987-3.125-5.402c-4.34-4.268-8.95-8.257-13.472-12.338c-8.723-7.873-17.448-15.745-24.095-25.57
		c-3.203-4.736-5.51-9.811-5.969-15.617c-0.883-11.163,7.077-19.854,17.213-19.109C248.103-61.692,251.021-60.524,254.178-59.739z
		 M260.348-55.88c0.102,1.983,0.129,3.806,0.297,5.615c1.092,11.688,3.148,23.193,6.281,34.518
		c4.744,17.151,13.6,31.546,27.832,42.476c0.814,0.623,1.496,1.956,1.521,2.98c0.149,5.523,0.074,11.054,0.068,16.581
		c0,1.822-0.875,2.96-2.693,3.28c-2.219,0.393-4.445,0.747-6.669,1.119c-2.883,0.479-5.768,0.959-8.616,1.436
		c0,2.254,0,4.299,0,6.359c14.078,0,28.044,0,42.119,0c0-1.691-0.086-3.26,0.027-4.816c0.095-1.313-0.459-1.692-1.672-1.872
		c-4.518-0.68-9.022-1.461-13.529-2.227c-2.081-0.354-2.904-1.32-2.912-3.443c-0.019-5.402-0.103-10.809,0.071-16.204
		c0.036-1.124,0.788-2.584,1.683-3.268c12.252-9.342,20.617-21.5,25.723-35.878c3.821-10.76,6.043-21.951,7.491-33.274
		c0.562-4.4,0.862-8.835,1.295-13.382C312.462-55.88,286.486-55.88,260.348-55.88z M335.28-4.725
		c2.201-1.991,4.697-4.173,7.112-6.44c6.916-6.496,13.733-13.092,18.728-21.271c2.778-4.545,4.512-9.409,3.455-14.834
		c-0.828-4.261-3.124-7.429-7.574-8.38c-4.508-0.965-8.412,0.362-11.545,3.779c-0.373,0.405-0.633,0.938-0.858,1.449
		c-1.462,3.298-0.1,5.882,3.438,6.563c1.768,0.341,2.771,1.611,2.625,3.322c-0.136,1.58-1.316,2.704-3.074,2.62
		c-1.524-0.072-3.037-0.426-4.146-0.595C340.701-27.173,337.978-15.896,335.28-4.725z M255.379-38.642
		c-1.01,0.209-2.275,0.601-3.567,0.709c-2.158,0.179-3.608-1.022-3.69-2.847c-0.076-1.736,1.148-2.987,3.251-3.114
		c1.612-0.096,2.543-0.941,3.052-2.355c0.75-2.073,0.327-4.021-1.045-5.646c-2.838-3.354-6.684-4.479-10.848-3.951
		c-4.01,0.509-6.688,3.073-7.922,6.906c-1.529,4.754-0.528,9.313,1.574,13.664c2.541,5.252,6.114,9.813,10.16,13.945
		c5.607,5.726,11.426,11.241,17.254,16.946C260.803-16.03,258.098-27.306,255.379-38.642z M263.27,70.548
		c24.158,0,48.172,0,72.144,0c0-2.036,0-3.942,0-5.819c-24.119,0-48.087,0-72.144,0C263.27,66.686,263.27,68.548,263.27,70.548z"/>
</g>
<rect x="214.333" y="13.5" style="fill:#343434;" width="27" height="25"/>
<g>
	<path style="fill-rule:evenodd;clip-rule:evenodd;fill:#343434;" d="M-23.24-58.677c0,11.921-0.097,23.843,0.061,35.763
		c0.045,3.443-2.433,4.465-5.071,3.074c-10.068-5.309-20.923-7.01-32.231-6.16c-8.734,0.656-17.035,2.941-24.996,6.518
		c-1.374,0.617-2.55,0.305-3.806-0.25c-10.077-4.441-20.592-6.836-31.637-6.449c-8.998,0.314-17.611,2.277-25.617,6.553
		c-2.417,1.293-4.416,0.107-4.418-2.678c-0.014-24.189-0.004-48.38-0.014-72.569c0-1.488,0.613-2.501,1.963-3.163
		c20.056-9.839,40.268-10.388,60.688-1.126c0.701,0.318,1.807,0.279,2.521-0.043c20.429-9.209,40.639-8.675,60.681,1.208
		c1.53,0.754,1.894,1.992,1.891,3.561C-23.251-82.519-23.24-70.598-23.24-58.677z M-28.78-26.545c0.022-0.4,0.075-0.898,0.075-1.396
		c0.005-21.412-0.01-42.826,0.039-64.238c0.003-1.282-0.491-1.81-1.561-2.281c-18.58-8.179-36.97-7.985-55.155,1.218
		c-1.197,0.605-2.242,0.608-3.438,0.001c-18.121-9.196-36.462-9.355-55.009-1.318c-1.304,0.564-1.712,1.312-1.708,2.728
		c0.049,21.239,0.033,42.48,0.033,63.718c0,0.553,0,1.107,0,1.65c0.32,0.018,0.441,0.055,0.541,0.023
		c0.273-0.09,0.539-0.207,0.805-0.316c8.186-3.338,16.729-4.891,25.534-4.865c10.167,0.029,19.958,2.107,29.325,6.055
		c1.553,0.656,2.834,0.635,4.389-0.002c14.374-5.877,29.181-7.793,44.456-4.369C-36.538-29.061-32.729-27.707-28.78-26.545z"/>
	<path style="fill-rule:evenodd;clip-rule:evenodd;fill:#343434;" d="M-20.365-14.055c0-0.977,0-1.723,0-2.469
		c-0.001-23.615-0.001-47.231-0.001-70.846c0-2.648,0.938-4.053,2.711-4.067c1.782-0.014,2.752,1.404,2.752,4.022
		c0,25.351,0,50.704-0.001,76.055c0,0.578,0.046,1.164-0.027,1.734c-0.245,1.945-2.043,3.074-3.813,2.238
		c-7.958-3.752-16.326-6.092-25.022-7.203c-10.202-1.305-20.406-1.279-30.571,0.498c-1.068,0.188-1.614,0.58-1.826,1.813
		c-0.618,3.596-3.054,5.652-6.461,6.439c-3.127,0.721-6.313,0.678-9.443-0.215c-3.301-0.943-5.428-3.043-6.012-6.449
		c-0.173-1.012-0.613-1.434-1.479-1.533c-4.014-0.461-8.021-1.088-12.049-1.289c-12.287-0.617-24.358,0.668-36.033,4.75
		c-2.447,0.857-4.836,1.898-7.207,2.955c-2.57,1.146-4.441,0.072-4.443-2.738c-0.016-25.93-0.013-51.86-0.003-77.79
		c0.001-1.995,1.185-3.337,2.788-3.288c1.646,0.051,2.668,1.403,2.668,3.586c0.002,23.789,0,47.577,0,71.366
		c0,0.734,0,1.469,0,2.186c4.13-1.246,8.063-2.557,12.062-3.613c9.063-2.396,18.325-3.207,27.667-2.848
		c4.842,0.188,9.676,0.719,14.5,1.225c1.352,0.143,2.689,0.662,3.973,1.164c1.896,0.744,2.998,2.146,2.881,4.273
		c-0.092,1.617,0.73,2.691,2.195,2.822c2.326,0.207,4.695,0.205,7.024,0.018c1.417-0.115,2.186-1.201,2.087-2.717
		c-0.152-2.318,1.054-3.932,3.119-4.428c3.799-0.912,7.663-1.799,11.545-2.082c7.848-0.572,15.717-0.563,23.553,0.516
		c7.407,1.02,14.628,2.729,21.593,5.473C-21.324-14.373-20.999-14.273-20.365-14.055z"/>
	<path style="fill-rule:evenodd;clip-rule:evenodd;fill:#343434;" d="M-84.37-59.552c0,8.328,0,16.656-0.003,24.982
		c0,0.578,0.033,1.166-0.059,1.732c-0.23,1.412-1.474,2.535-2.745,2.408c-1.412-0.145-2.328-0.965-2.592-2.389
		c-0.094-0.504-0.063-1.035-0.063-1.555c-0.002-16.771-0.002-33.542-0.002-50.313c0-0.462-0.027-0.931,0.033-1.386
		c0.209-1.542,1.398-2.674,2.773-2.57c1.544,0.116,2.363,1.087,2.615,2.549c0.088,0.507,0.039,1.039,0.039,1.559
		C-84.37-76.207-84.37-67.88-84.37-59.552z"/>
</g>
<g>
	<path style="fill-rule:evenodd;clip-rule:evenodd;fill:#343434;" d="M45.567,115.681c1.02-5.714,2.094-11.796,3.194-17.874
		c0.528-2.916,1.245-5.808,1.576-8.745c0.104-0.921-0.522-2.201-1.231-2.896c-6.192-6.076-12.458-12.08-18.756-18.049
		c-1.162-1.102-2.317-2.355-1.418-3.787c0.613-0.973,2.147-1.712,3.368-1.899c8.476-1.292,16.968-2.476,25.475-3.531
		c1.564-0.194,2.265-0.815,2.893-2.131c3.656-7.666,7.402-15.289,11.098-22.936c0.697-1.439,1.315-2.843,3.294-2.844
		c2.006-0.001,2.561,1.464,3.253,2.893c3.693,7.644,7.438,15.264,11.091,22.927c0.634,1.334,1.373,1.898,2.916,2.089
		c8.508,1.057,17.003,2.225,25.474,3.55c1.253,0.196,2.928,1.214,3.324,2.261c0.324,0.855-0.697,2.599-1.589,3.476
		c-6.002,5.914-12.094,11.74-18.246,17.498c-1.438,1.346-1.812,2.634-1.462,4.56c1.502,8.268,2.905,16.559,4.161,24.868
		c0.177,1.171-0.307,2.912-1.137,3.609c-0.637,0.532-2.472,0.157-3.49-0.366c-7.554-3.887-15.056-7.87-22.518-11.927
		c-1.475-0.802-2.593-0.752-4.04,0.033c-7.609,4.137-15.269,8.18-22.925,12.235C47.219,120.103,45.467,119.012,45.567,115.681z
		 M112.116,67.356c-8.127-1.085-15.63-2.162-23.159-3.041c-1.979-0.23-3.101-1.023-3.927-2.785
		c-3.012-6.413-6.128-12.775-9.22-19.149c-0.256-0.529-0.625-1-1.108-1.76c-3.399,6.928-6.644,13.496-9.84,20.089
		c-0.891,1.837-2.073,2.995-4.275,3.198c-3.191,0.296-6.357,0.892-9.532,1.37c-4.486,0.674-8.972,1.357-13.851,2.097
		c4.733,4.523,9.128,8.637,13.425,12.853c6.458,6.334,5.575,3.43,4.075,12.418c-1.003,5.991-2.131,11.964-3.255,18.233
		c1.017-0.497,1.753-0.838,2.47-1.213c5.986-3.138,12.008-6.212,17.933-9.461c2.056-1.128,3.798-1.094,5.776,0.082
		c2.333,1.387,4.793,2.563,7.199,3.827c4.188,2.201,8.379,4.397,12.979,6.811c-1.144-6.506-1.751-12.615-3.383-18.438
		c-1.474-5.251-0.28-8.702,3.902-12.085C103.106,76.541,107.308,71.964,112.116,67.356z"/>
	<path style="fill-rule:evenodd;clip-rule:evenodd;fill:#343434;" d="M130.349,86.734c-0.897-5.183-1.582-9.903-2.585-14.557
		c-0.379-1.756,0.182-2.736,1.283-3.897c3.337-3.519,6.562-7.141,9.728-10.605c-3.13-0.403-6.85-1.099-10.596-1.305
		c-3.567-0.195-5.887-1.399-7.204-4.973c-1.353-3.67-3.357-7.1-5.271-11.03c-2.217,4.71-4.243,9.024-6.279,13.333
		c-0.818,1.73-2.009,2.863-4.092,2.199c-1.859-0.591-2.695-2.335-1.825-4.116c3.074-6.288,6.175-12.566,9.43-18.76
		c0.417-0.794,1.882-1.572,2.74-1.458c0.992,0.134,2.232,1.069,2.705,1.994c2.548,4.989,4.958,10.053,7.268,15.157
		c0.804,1.768,1.773,2.543,3.82,2.756c5.732,0.595,11.438,1.497,17.125,2.447c0.873,0.145,2.148,1.102,2.255,1.826
		c0.148,1.008-0.331,2.452-1.067,3.187c-4.027,4.03-8.138,7.989-12.389,11.778c-1.545,1.378-1.753,2.738-1.401,4.573
		c1.021,5.339,2.048,10.68,2.83,16.058c0.171,1.183-0.308,2.936-1.145,3.636c-0.619,0.519-2.466,0.052-3.5-0.486
		c-5.927-3.079-11.789-6.286-17.646-9.501c-2.447-1.345-2.744-4.123-0.47-5.22c0.9-0.435,2.428-0.229,3.4,0.244
		C121.676,82.07,125.788,84.333,130.349,86.734z"/>
	<path style="fill-rule:evenodd;clip-rule:evenodd;fill:#343434;" d="M34.372,40.002c-2.2,4.606-4.198,8.659-6.069,12.771
		c-0.866,1.905-2.074,2.959-4.253,3.181c-4.832,0.493-9.64,1.202-14.366,1.811c3.256,3.405,6.371,6.887,9.747,10.094
		c1.599,1.518,1.994,2.926,1.557,5.019c-0.922,4.415-1.591,8.883-2.459,13.877c3.975-2.159,7.487-4.074,11.009-5.979
		c1.014-0.548,2.014-1.141,3.077-1.576c1.595-0.656,2.939-0.296,3.711,1.349c0.737,1.574,0.401,2.928-1.14,3.802
		c-2.436,1.383-4.913,2.691-7.377,4.026c-3.624,1.963-7.214,3.995-10.902,5.827c-0.993,0.493-2.715,0.898-3.345,0.396
		c-0.813-0.65-1.322-2.318-1.162-3.434c0.745-5.213,1.643-10.415,2.74-15.569c0.531-2.493,0.149-4.255-1.792-6.072
		C9.487,65.92,5.851,62.071,2.261,58.194c-0.716-0.774-1.383-2.364-1.051-3.14c0.412-0.958,1.818-1.897,2.921-2.08
		c5.604-0.927,11.245-1.656,16.887-2.34c1.648-0.201,2.557-0.839,3.262-2.412c2.295-5.108,4.736-10.157,7.285-15.145
		c0.527-1.033,1.826-2.446,2.646-2.37c1.073,0.103,2.402,1.313,2.963,2.388c3.042,5.845,5.898,11.788,8.778,17.716
		c1.129,2.326,0.769,3.75-1.02,4.621c-1.838,0.893-3.108,0.31-4.237-2.046C38.637,49.081,36.617,44.758,34.372,40.002z"/>
</g>
</svg>
