<?xml version="1.0" encoding="iso-8859-1"?>
<!-- Generator: Adobe Illustrator 16.0.0, SVG Export Plug-In . SVG Version: 6.00 Build 0)  -->
<!DOCTYPE svg PUBLIC "-//W3C//DTD SVG 1.1//EN" "http://www.w3.org/Graphics/SVG/1.1/DTD/svg11.dtd">
<svg version="1.1" id="Layer_1" xmlns="http://www.w3.org/2000/svg" xmlns:xlink="http://www.w3.org/1999/xlink" x="0px" y="0px"
	 width="70px" height="70px" viewBox="0 0 70 70" style="enable-background:new 0 0 70 70;" xml:space="preserve">
<g>
	<path style="fill:#201E1F;" d="M34.473,2.701c0.288-0.584,0.759-0.584,1.045,0l9.76,19.777c0.289,0.583,1.052,1.136,1.694,1.23
		l21.826,3.171c0.642,0.093,0.787,0.541,0.322,0.995L53.328,43.269c-0.467,0.455-0.757,1.352-0.646,1.993l3.728,21.74
		c0.11,0.64-0.271,0.915-0.848,0.614L36.04,57.352c-0.575-0.305-1.517-0.305-2.093,0L14.429,67.609
		c-0.575,0.307-0.956,0.026-0.846-0.614l3.729-21.738c0.11-0.64-0.181-1.538-0.646-1.99L0.873,27.875
		c-0.466-0.454-0.32-0.902,0.323-0.995l21.825-3.172c0.643-0.093,1.405-0.646,1.692-1.23L34.473,2.701z"/>
</g>
</svg>
